<svg width="338" height="311" viewBox="0 0 338 311" fill="none" xmlns="http://www.w3.org/2000/svg">
<mask id="mask0" mask-type="alpha" maskUnits="userSpaceOnUse" x="0" y="126" width="154" height="184">
<path fill-rule="evenodd" clip-rule="evenodd" d="M0 126.445H153.801V309.602H0V126.445Z" fill="white"/>
</mask>
<g mask="url(#mask0)">
<path fill-rule="evenodd" clip-rule="evenodd" d="M144.748 208.301C147.94 208.301 150.991 208.896 153.801 209.97V157.002H93.9996C95.9272 153.936 97.0588 150.326 97.0588 146.446C97.0588 135.4 88.0334 126.445 76.9005 126.445C65.7672 126.445 56.7422 135.4 56.7422 146.446C56.7422 150.326 57.8739 153.936 59.801 157.002H-4.57764e-05V309.602H153.801V256.635C150.991 257.709 147.94 258.304 144.748 258.304C130.832 258.304 119.55 247.11 119.55 233.302C119.55 219.495 130.832 208.301 144.748 208.301Z" fill="#FF7B22"/>
</g>
<path fill-rule="evenodd" clip-rule="evenodd" d="M101.767 145.995C101.767 149.17 101.169 152.204 100.09 155H153.302V95.5103C156.383 97.4273 160.009 98.5536 163.907 98.5536C175.004 98.5536 184 89.5751 184 78.5002C184 67.4249 175.004 58.4464 163.907 58.4464C160.009 58.4464 156.383 59.5722 153.302 61.4897V2H0V155H53.2118C52.1322 152.204 51.5348 149.17 51.5348 145.995C51.5348 132.15 62.7795 120.928 76.6508 120.928C90.5222 120.928 101.767 132.15 101.767 145.995Z" fill="#F98F46"/>
<path fill-rule="evenodd" clip-rule="evenodd" d="M194.475 84.0684C191.84 84.0684 189.321 83.5749 187 82.6834V126.641H236.38C234.789 129.186 233.855 132.181 233.855 135.401C233.855 144.568 241.307 152 250.5 152C259.693 152 267.146 144.568 267.146 135.401C267.146 132.181 266.211 129.186 264.62 126.641H314V0H187V43.9575C189.321 43.0656 191.84 42.572 194.475 42.572C205.966 42.572 215.282 51.8615 215.282 63.3204C215.282 74.7793 205.966 84.0684 194.475 84.0684Z" fill="#FFD8BD"/>
<path fill-rule="evenodd" clip-rule="evenodd" d="M208.233 165.005C208.233 161.83 208.831 158.795 209.91 156H156.697V215.489C153.617 213.572 149.991 212.446 146.093 212.446C134.996 212.446 126 221.425 126 232.5C126 243.575 134.996 252.554 146.093 252.554C149.991 252.554 153.617 251.427 156.697 249.51V309H310V156H256.788C257.868 158.795 258.465 161.83 258.465 165.005C258.465 178.849 247.22 190.072 233.349 190.072C219.478 190.072 208.233 178.849 208.233 165.005Z" fill="#FFE2CF"/>
<mask id="mask1" mask-type="alpha" maskUnits="userSpaceOnUse" x="0" y="0" width="338" height="311">
<path fill-rule="evenodd" clip-rule="evenodd" d="M0 311H338V0H0V311Z" fill="white"/>
</mask>
<g mask="url(#mask1)">
<path fill-rule="evenodd" clip-rule="evenodd" d="M280 172H307V171H280V172Z" fill="#24D0FF"/>
<path fill-rule="evenodd" clip-rule="evenodd" d="M284 192H311V191H284V192Z" fill="#24D0FF"/>
<path fill-rule="evenodd" clip-rule="evenodd" d="M288 211H315V210H288V211Z" fill="#24D0FF"/>
<path fill-rule="evenodd" clip-rule="evenodd" d="M292 229H319V228H292V229Z" fill="#24D0FF"/>
<path fill-rule="evenodd" clip-rule="evenodd" d="M296 248H323V247H296V248Z" fill="#24D0FF"/>
<path fill-rule="evenodd" clip-rule="evenodd" d="M300 267H327V266H300V267Z" fill="#24D0FF"/>
<path fill-rule="evenodd" clip-rule="evenodd" d="M304 285H331V284H304V285Z" fill="#24D0FF"/>
<path fill-rule="evenodd" clip-rule="evenodd" d="M276 152H303V151H276V152Z" fill="#24D0FF"/>
<path fill-rule="evenodd" clip-rule="evenodd" d="M272 132H299V131H272V132Z" fill="#24D0FF"/>
<path fill-rule="evenodd" clip-rule="evenodd" d="M307.729 310.076L269.024 121.396C268.895 120.768 269.294 120.154 269.915 120.024C270.535 119.894 271.142 120.297 271.271 120.924L309.976 309.605C310.104 310.231 309.706 310.845 309.086 310.976C308.465 311.106 307.857 310.703 307.729 310.076Z" fill="#24D0FF"/>
<path fill-rule="evenodd" clip-rule="evenodd" d="M335.729 310.076L297.024 121.396C296.895 120.768 297.294 120.154 297.915 120.024C298.535 119.894 299.142 120.297 299.271 120.924L337.976 309.605C338.104 310.231 337.706 310.845 337.086 310.976C336.465 311.106 335.857 310.703 335.729 310.076Z" fill="#24D0FF"/>
<path fill-rule="evenodd" clip-rule="evenodd" d="M294.649 170.152C295.012 170.373 295.133 170.847 294.822 170.949C294.589 171.025 291.714 170.999 290.271 170.981C289.991 170.978 289.896 170.796 290.14 170.728C291.193 170.437 293.093 170 293.093 170L294.649 170.152Z" fill="#330F32"/>
<path fill-rule="evenodd" clip-rule="evenodd" d="M303.649 170.152C304.012 170.373 304.133 170.847 303.822 170.949C303.589 171.025 300.714 170.999 299.271 170.981C298.991 170.978 298.896 170.796 299.14 170.728C300.193 170.437 302.093 170 302.093 170L303.649 170.152Z" fill="#330F32"/>
<path fill-rule="evenodd" clip-rule="evenodd" d="M290 122.996C291.763 134.275 302.798 168.596 302.798 168.596C303.713 169.115 304.758 168.986 304.758 168.986C305.541 166.004 304.253 145.591 303.321 140.724C299.795 122.315 299.142 117 299.142 117L290 122.996Z" fill="#4158E0"/>
<path fill-rule="evenodd" clip-rule="evenodd" d="M302.455 169.764C302.455 169.764 295.737 148.445 292 133.759C292.679 132.435 293.574 131 293.574 131C298.683 142.621 302.462 166.488 303 170C302.819 169.942 302.636 169.869 302.455 169.764Z" fill="#EDD4ED"/>
<path fill-rule="evenodd" clip-rule="evenodd" d="M279 123.013C282.174 134.773 291.959 168.597 291.959 168.597C292.884 169.115 293.942 168.986 293.942 168.986C294.735 166.005 293.81 147.344 293.281 142.419C292.752 137.495 295 120 295 120L279 123.013Z" fill="#4760F5"/>
<path fill-rule="evenodd" clip-rule="evenodd" d="M280 124.481L287.648 123L295 125.493C294.99 125.581 294.981 125.668 294.971 125.758C293.354 127.618 286.904 128.646 285.241 128.894C283.574 129.143 293.596 166.96 292.956 170C292.813 169.948 292.67 169.887 292.528 169.806C292.528 169.806 283.068 136.174 280 124.481Z" fill="#EDD4ED"/>
<path fill-rule="evenodd" clip-rule="evenodd" d="M291.004 86.4905C290.916 85.3818 292.179 84.6158 293.165 85.2029C301.947 90.4325 310.537 104.288 305.509 107.462C300.029 110.921 292.545 107.591 292.545 106.694C292.545 105.985 291.459 92.2223 291.004 86.4905Z" fill="#293387"/>
<path fill-rule="evenodd" clip-rule="evenodd" d="M298.71 96C301.204 101.135 302.312 105.362 298.618 103.589C294.924 101.817 298.71 96 298.71 96Z" fill="#EDD4ED"/>
<path fill-rule="evenodd" clip-rule="evenodd" d="M291 124.801C287.007 125.315 282.851 124.903 280.146 122.763C277.721 116.307 277.574 108.866 278.605 102.196C280.467 101.558 282.197 101 282.197 101C282.288 111.676 283.389 121.58 291 124.801Z" fill="#3D303D"/>
<path fill-rule="evenodd" clip-rule="evenodd" d="M290.55 82.0746C294.39 80.6555 297.333 75.5039 296.452 73.2827C297.522 73.6532 296.893 71.4784 295.696 70.738C295.225 67.4524 291.322 66.6503 292.014 68.0074C289.433 66.897 283.563 65.0463 282.052 66.5887C280.541 68.1311 280.668 71.216 282.367 72.5113C284.13 73.9925 284.822 77.9406 284.822 77.9406C284.822 77.9406 287.529 80.5322 287.655 80.8405C287.78 81.1493 289.795 83 289.795 83L290.55 82.0746Z" fill="#33110B"/>
<path fill-rule="evenodd" clip-rule="evenodd" d="M287.271 81.4096C287.153 81.088 284.602 78.3849 284.602 78.3849C284.602 78.3849 283.95 74.2653 282.288 72.7205C280.687 71.3692 280.568 68.1511 281.991 66.542C282.244 66.2564 282.63 66.0867 283.101 66C282.459 67.1843 282.371 69.5439 283.705 70.4358C285.039 71.3286 284.928 75.3114 285.907 75.2147C286.886 75.1179 288.977 75.3114 288.799 77.3388C288.621 79.3662 288.243 81.5625 290 82.6971C289.672 82.9106 289.193 82.9936 288.649 83C288.086 82.4087 287.344 81.6072 287.271 81.4096Z" fill="#171417"/>
<path fill-rule="evenodd" clip-rule="evenodd" d="M280 70C280.695 73.2115 281.252 75.243 280.557 78.4545C279.861 81.6659 281.67 85.0739 285.428 83.9599C286.332 84.8119 285.706 86.1884 285.706 86.1884C287.306 87.8269 291.621 86.7779 290.925 84.8774C289.464 83.3044 289.742 82.3869 289.742 82.3869C288.976 82.4524 287.237 80.6174 287.098 78.9134C288.698 76.7505 286.332 75.374 285.428 76.423C284.523 77.4715 283.061 77.1435 283.132 75.1775C283.201 73.2115 280.905 73.015 280 70Z" fill="#FFC4A2"/>
<path fill-rule="evenodd" clip-rule="evenodd" d="M287 78.0565C286.68 78.0437 286.458 78.1511 286.314 78.3032C286.797 78.4027 286.743 78.6974 286.513 78.7815C286.635 78.6204 286.505 78.4458 286.203 78.4541C286.098 78.6384 286.071 78.8487 286.107 79C285.782 78.4241 286.229 77.8083 287 78.0565Z" fill="#EDD4ED"/>
<path fill-rule="evenodd" clip-rule="evenodd" d="M283.211 75.3754C282.427 74.517 281.42 74.068 281.541 74.6297C281.678 75.2658 282.06 77.2219 281.595 78.8715C281.131 80.5215 281.705 83.3966 283.81 83.8443C285.917 84.2924 286.627 82.5956 286.71 82.9253C286.792 83.2554 286.272 83.8207 286.491 84.2688C286.679 84.6541 287.37 86.1879 286.742 87C286.453 86.8802 286.194 86.7229 285.98 86.5233C285.98 86.5233 286.637 85.2034 285.689 84.3864C281.75 85.4547 279.854 82.1871 280.584 79.1071C281.313 76.0276 280.729 74.0795 280 71C280.838 73.5575 282.815 74.002 283.211 75.3754Z" fill="#EDD4ED"/>
<path fill-rule="evenodd" clip-rule="evenodd" d="M290.534 84C293.45 84.3852 298.113 89.1067 298.405 94.9843C298.696 100.862 295.684 115.218 302 120.132C299.862 123.601 286.259 127.551 280.137 122.83C274.307 107.703 281.692 86.9868 286.939 84.7708C288.591 85.5417 290.534 84 290.534 84Z" fill="#0F143B"/>
<path fill-rule="evenodd" clip-rule="evenodd" d="M284.111 89.1606C276.562 101.153 261.232 101.774 253.777 100.3C253.013 100.792 252.631 103.445 253.491 104.035C257.217 107.181 269.394 111.671 278.569 106.952C287.742 102.234 286.883 87.2929 284.111 89.1606Z" fill="#293387"/>
<path fill-rule="evenodd" clip-rule="evenodd" d="M282 102.501C280.988 103.844 279.726 105.018 278.162 105.868C269.133 110.78 257.149 106.106 253.481 102.832C253.083 102.543 252.958 101.78 253.012 101C261.705 107.109 272.574 107.819 282 102.501Z" fill="#EDD4ED"/>
<path fill-rule="evenodd" clip-rule="evenodd" d="M32 134.384C27.6597 134.092 25.0215 132 25.0215 132L24 138.676C24 138.676 24.6526 140.107 26.3831 140.875C28.1136 141.643 31.9715 138.623 31.9715 138.623L32 134.384Z" fill="#C8C5F0"/>
<path fill-rule="evenodd" clip-rule="evenodd" d="M40.9997 164.963C42.5279 159.45 42.6176 153.637 37.8986 151.828C37.4042 151.828 37 149.158 37 149.158L43.696 143C50.408 144.12 48.6548 155.086 42.6626 165.307C42.4605 165.91 42.8497 167 42.8497 167C42.8497 167 41.8983 166.685 41.8086 166.642C41.7189 166.599 41.1344 166.082 41.067 166.039C40.9997 165.996 40.9997 164.963 40.9997 164.963Z" fill="#FAAF96"/>
<path fill-rule="evenodd" clip-rule="evenodd" d="M41.1897 165C41.2581 164.911 45.0162 159.98 43.7333 152.609L39 152L39.0327 152.196C42.7673 154.407 42.5978 159.831 41.1897 165Z" fill="#EDD4ED"/>
<path fill-rule="evenodd" clip-rule="evenodd" d="M58.4303 167.572C58.4303 167.666 59.2172 168 59.2172 168H60.5651L61 167.681C61 167.681 60.1591 167.235 59.9074 166.08C57.2624 156.287 49.2047 144.309 39.3136 147.537C29.423 150.764 34.1095 156.301 34.1095 156.301C45.1792 151.877 56.3349 161.671 58.4051 167.013L58.4303 167.572Z" fill="#FFC4A2"/>
<path fill-rule="evenodd" clip-rule="evenodd" d="M59 167C55.8927 157.326 48.2649 154.68 44.5373 153.787C40.968 152.931 42.3459 150.44 42.679 147C42.3174 147.03 41.9526 147.082 41.5851 147.153C40.0856 148.028 37.3087 149.653 34.5199 151.312C33.0782 153.904 35.0925 156.34 35.0925 156.34C45.918 151.917 56.8223 161.583 59 167Z" fill="#EDD4ED"/>
<path fill-rule="evenodd" clip-rule="evenodd" d="M58.9319 166L58.954 166.832C58.954 166.869 59.0005 166.93 59.0682 167C59.0387 166.68 58.9954 166.349 58.9319 166Z" fill="#EDD4ED"/>
<path fill-rule="evenodd" clip-rule="evenodd" d="M11.1092 116.317C11.1106 115.153 11.4686 113.997 12.2445 113.111C14.2437 110.828 17.327 111.545 19.4076 110.534C21.9677 109.289 25.6477 109.989 25.0877 115.125C24.5278 120.26 26.1281 124.306 28.0481 126.251C29.9682 128.196 29.0884 133.254 24.4477 133.176C19.8075 133.098 11.4067 134.809 11.167 134.965C5.00648 135.51 3.8065 129.519 6.04634 127.029C4.2864 123.994 5.88622 121.972 8.76654 121.194C10.8053 120.643 11.1069 117.883 11.1092 116.317Z" fill="#330F32"/>
<path fill-rule="evenodd" clip-rule="evenodd" d="M24.4479 133.176C29.0881 133.254 29.9683 128.196 28.0482 126.251C26.1277 124.306 24.5279 120.26 25.0879 115.125C25.6478 109.989 21.9679 109.289 19.4073 110.534C21.7812 111.027 21.5676 114.606 18.954 115.643C16.3409 116.681 12.8736 120.208 14.4204 124.358C15.9671 128.507 12.1805 133.487 8.5001 132.502C4.81967 131.516 6.04664 127.029 6.04664 127.029C3.80636 129.519 5.00632 135.51 11.1668 134.965C11.4069 134.809 19.8076 133.098 24.4479 133.176Z" fill="#171417"/>
<path fill-rule="evenodd" clip-rule="evenodd" d="M17.133 129.448C14.8727 130.26 13.3072 134.971 13.0465 140.642C12.7859 146.312 12.8726 162.189 34.6963 155.297C42.0004 150.499 44 142.212 44 142.212C41.9132 141.688 31.0445 142.997 31.0445 142.997C28.6102 141.514 28.0017 141.688 28.3491 137.326C28.6974 132.965 25.3494 130.165 23.2847 129.341C21.2194 128.516 17.133 129.448 17.133 129.448Z" fill="#DBE1FF"/>
<path fill-rule="evenodd" clip-rule="evenodd" d="M23.1652 126.311C22.4056 129.547 23.955 130.774 23.955 130.774C24.5015 132.867 19.9461 134.457 17 130.886C18.7768 129.045 19.1261 125 19.1261 125L23.1652 126.311Z" fill="#FFC4A2"/>
<path fill-rule="evenodd" clip-rule="evenodd" d="M18.549 131.346C18.2298 130.259 19.7332 127.999 20.0524 125.32L20.0115 125.287L19.1257 125C19.1257 125 18.7764 129.045 17 130.886C19.9458 134.457 24.5015 132.866 23.955 130.774C23.7122 133.383 18.8681 132.434 18.549 131.346Z" fill="#EDD4ED"/>
<path fill-rule="evenodd" clip-rule="evenodd" d="M25.1377 112.662C26.576 116.261 25.6732 117.736 26.2236 119.101C27.3695 121.946 27.4222 125.278 25.18 126.519C22.5932 127.951 18.4534 125.961 17.6073 123.52C15.2701 123.758 15.7461 120.645 17.3537 121.224C17.4379 119.735 16.7187 117.584 19.7648 116.633C22.8108 115.681 24.4185 113.861 24.3762 112C24.8413 114.771 25.1377 112.662 25.1377 112.662Z" fill="#FFC4A2"/>
<path fill-rule="evenodd" clip-rule="evenodd" d="M16 122.097C16.2866 122.052 16.5036 122.143 16.6585 122.288C16.238 122.441 16.3331 122.744 16.5539 122.81C16.4184 122.653 16.5084 122.457 16.7819 122.436C16.9058 122.619 16.9634 122.837 16.9545 123C17.1569 122.362 16.6569 121.759 16 122.097Z" fill="#EDD4ED"/>
<path fill-rule="evenodd" clip-rule="evenodd" d="M23.3333 112C23.3704 113.862 21.9628 115.683 19.2964 116.635C16.6296 117.587 17.2593 119.739 17.1852 121.229C15.7776 120.649 15.3609 123.763 17.4075 123.525C18.0682 125.703 21.0207 127.515 23.2587 126.866C23.2622 126.854 23.2678 126.842 23.2717 126.829C16.7529 125.671 18.5556 117.711 20.5001 116.821C22.4442 115.932 23.1295 115.103 23.2781 113.986C23.5557 114.338 23.9078 113.841 24 112.662C24 112.662 23.741 114.773 23.3333 112Z" fill="#EDD4ED"/>
<path fill-rule="evenodd" clip-rule="evenodd" d="M17 123.5C17 123.776 16.7762 124 16.5003 124C16.2238 124 16 123.776 16 123.5C16 123.224 16.2238 123 16.5003 123C16.7762 123 17 123.224 17 123.5Z" fill="white"/>
<path fill-rule="evenodd" clip-rule="evenodd" d="M31.4305 143.354C29.929 142.434 29.1452 142.165 28.8591 141L28.8154 141.087C26.7179 146.054 19.4397 154.07 15 149.988C16.8846 155.185 21.9175 159.482 34.9737 155.34C42.0599 150.665 44 142.588 44 142.588C41.9757 142.078 31.4305 143.354 31.4305 143.354Z" fill="#0F143B"/>
<path fill-rule="evenodd" clip-rule="evenodd" d="M23 149.502L45.8936 139L46 140.779L23.7196 151L23 149.502Z" fill="#D7DFEB"/>
<path fill-rule="evenodd" clip-rule="evenodd" d="M28 147L45.1722 139.265L47 126L29.8278 133.735L28 147Z" fill="#E1E9F5"/>
<path fill-rule="evenodd" clip-rule="evenodd" d="M60.8479 167.675C60.7655 167.647 60.6861 167.618 60.6092 167.589C60.4204 167.517 60.2422 167.458 60.0699 167.403C59.3593 167.435 57.7709 167.21 57.2651 167C57.0234 167.191 56.5395 167.807 58.1 167.852C59.3723 167.888 59.204 167.936 60.6451 167.999C60.9857 168.014 61.1355 167.773 60.8479 167.675Z" fill="#330F32"/>
<path fill-rule="evenodd" clip-rule="evenodd" d="M42.9719 167.601C42.9341 167.524 42.8988 167.448 42.8663 167.373C42.7874 167.187 42.7037 167.024 42.6204 166.868C42.0147 166.575 40.9627 165.521 40.7681 165C40.3798 165.141 39.3641 165.736 40.5769 166.535C41.566 167.187 41.3805 167.171 42.4795 167.939C42.739 168.12 43.1045 167.868 42.9719 167.601Z" fill="#330F32"/>
<path fill-rule="evenodd" clip-rule="evenodd" d="M21.2785 150.756C21.2785 150.756 18.0955 147.044 18.4407 143C18.4407 143 15.0831 148.282 14.6854 148.844C14.5751 149 14.3144 149.399 14 149.921C15.5782 155.545 20.4087 160.757 34.5492 156.353C36.342 155.191 37.8085 153.818 39 152.413C27.7382 155.823 21.4991 152.999 21.2785 150.756Z" fill="#EDD4ED"/>
<path fill-rule="evenodd" clip-rule="evenodd" d="M11.7752 160.324C12.2195 161.13 11.9233 161.935 11.5904 162.447C11.257 162.96 11.3313 164.24 10.9608 163.948C10.5907 163.655 11.0718 162.594 10.8127 162.594C10.5536 162.594 8.66559 165.302 8.25837 164.972C7.85116 164.643 8.22165 164.131 8.22165 164.131C7.62919 164.533 7 165.082 7 164.46C7 163.838 8.22165 161.312 10.3687 160.141C11.4051 159.739 11.7752 160.324 11.7752 160.324Z" fill="#FFC4A2"/>
<path fill-rule="evenodd" clip-rule="evenodd" d="M16.1366 132.328C12.3588 137.539 10 160.517 10 160.517C10.6142 161.352 12.1936 160.851 12.1936 160.851C13.7731 158.514 17.4587 148.749 18.5995 143.741C19.5468 139.582 18.6785 133.984 17.4019 132.301C17.0858 131.885 16.4428 131.906 16.1366 132.328Z" fill="#EBEEFF"/>
<path fill-rule="evenodd" clip-rule="evenodd" d="M19 143.178C18.9971 143.062 18.9956 143 18.9956 143C18.9956 143 14.4815 155.934 11 161.996C11.6049 162.03 12.1887 161.85 12.1887 161.85C13.8223 159.433 17.6341 149.332 18.814 144.151C18.886 143.834 18.9481 143.509 19 143.178Z" fill="#EDD4ED"/>
<path fill-rule="evenodd" clip-rule="evenodd" d="M35.9171 154.196C36.3139 153.853 36.6914 153.497 37.0506 153.133C37.0519 153.132 37.0528 153.131 37.0537 153.13C37.4129 152.767 37.7541 152.395 38.0779 152.017C38.0784 152.016 38.0792 152.016 38.0797 152.015C38.4035 151.637 38.7098 151.254 38.9996 150.87L39 150.869C28.0289 154.614 21.9509 151.512 21.7355 149.05C21.7355 149.05 21.7216 149.032 21.6978 149C19.3718 150.728 16.9172 151.314 15 149.363C15.3421 150.408 15.7909 151.418 16.3744 152.345C16.3869 152.365 16.3986 152.385 16.4116 152.405C16.4935 152.533 16.5795 152.659 16.6668 152.784C16.6897 152.817 16.7121 152.85 16.7349 152.882C16.8182 152.998 16.9042 153.111 16.9915 153.224C17.0229 153.263 17.0533 153.303 17.0851 153.342C17.1698 153.448 17.2571 153.551 17.3467 153.653C17.3852 153.697 17.4232 153.74 17.4622 153.784C17.55 153.88 17.64 153.976 17.7322 154.068C17.7766 154.114 17.8218 154.158 17.867 154.203C17.9589 154.292 18.052 154.38 18.1478 154.466C18.1984 154.511 18.2499 154.555 18.3014 154.6C18.3968 154.682 18.4936 154.763 18.5934 154.842C18.6503 154.887 18.709 154.93 18.7668 154.974C18.8666 155.048 18.9669 155.122 19.0708 155.194C19.1331 155.237 19.198 155.278 19.2621 155.32C19.3669 155.389 19.4716 155.457 19.5809 155.521C19.6476 155.561 19.718 155.599 19.7865 155.637C19.8975 155.7 20.0082 155.763 20.1232 155.821C20.1945 155.858 20.2692 155.891 20.3422 155.925C20.4605 155.982 20.5778 156.039 20.7005 156.092C20.765 156.12 20.834 156.143 20.8998 156.17C21.1412 156.267 21.3915 156.356 21.6495 156.438C21.7458 156.468 21.8389 156.5 21.9374 156.529C22.048 156.56 22.1645 156.586 22.2787 156.615C22.3938 156.644 22.5071 156.675 22.6249 156.701C22.7395 156.725 22.8582 156.746 22.9755 156.767C23.1 156.791 23.2232 156.815 23.3513 156.835C23.469 156.854 23.5913 156.868 23.7118 156.883C23.8457 156.9 23.9791 156.918 24.1171 156.932C24.2402 156.943 24.3665 156.952 24.4928 156.961C24.6343 156.971 24.7754 156.98 24.9205 156.986C25.0494 156.992 25.182 156.994 25.3141 156.996C25.4633 156.999 25.6137 157.001 25.7664 156.999C25.9012 156.998 26.0387 156.994 26.1762 156.99C26.3338 156.985 26.4933 156.978 26.6549 156.969C26.7947 156.96 26.9362 156.951 27.0795 156.939C27.2465 156.926 27.4163 156.91 27.5878 156.892C27.7329 156.876 27.8784 156.86 28.0262 156.842C28.2036 156.82 28.384 156.794 28.5654 156.767C28.715 156.745 28.8641 156.722 29.0168 156.697C29.2063 156.665 29.3997 156.628 29.5936 156.592C29.7459 156.562 29.8968 156.535 30.0518 156.502C30.2547 156.46 30.4629 156.413 30.6707 156.364C30.8252 156.329 30.9779 156.295 31.1351 156.256C31.3554 156.202 31.5816 156.141 31.8073 156.08C31.9596 156.039 32.1087 156.001 32.2636 155.958C32.5198 155.885 32.7831 155.804 33.0465 155.724C33.1781 155.683 33.3058 155.647 33.4388 155.604C33.8391 155.478 34.2471 155.342 34.664 155.195C35.1002 154.877 35.5167 154.543 35.9144 154.199C35.9153 154.198 35.9162 154.197 35.9171 154.196Z" fill="#3D303D"/>
<path fill-rule="evenodd" clip-rule="evenodd" d="M140 81.0691C140.651 80.7425 141.052 79.3899 141.052 78.1307C141.052 76.8714 140.802 75.7991 141.303 76.032C141.804 76.2654 142.354 77.8977 142.605 79.0637C142.856 80.2298 143.156 83.0276 142.906 83.1678C142.104 83.6341 140.1 84.1472 140.05 83.9607C140 83.7737 140 81.0691 140 81.0691Z" fill="#FFC4A2"/>
<path fill-rule="evenodd" clip-rule="evenodd" d="M114.688 77C120.985 87.1554 134.691 86.4124 139.63 80.5918C139.877 81.5822 140 83.6876 140 83.6876C138.148 87.4028 128.517 97.1867 117.034 90.9946C109.626 83.6876 114.688 77 114.688 77Z" fill="#DBE1FF"/>
<path fill-rule="evenodd" clip-rule="evenodd" d="M117.259 91.1526C128.63 96.8566 138.166 87.8445 140 84.4217C140 84.4217 139.989 84.2549 139.969 84C134.463 90.2481 125.193 92.5132 117.992 87.8445C117.992 87.8445 117.561 89.1416 117 90.9029C117.087 90.9863 117.168 91.0693 117.259 91.1526Z" fill="#EDD4ED"/>
<path fill-rule="evenodd" clip-rule="evenodd" d="M119.18 105.067C123.152 123.509 136 155.196 136 155.196C135.119 156.05 133.959 155.999 133.959 155.999C131.459 154.327 116.393 136.121 112.006 117.449C107.582 98.6135 119.18 105.067 119.18 105.067Z" fill="#192263"/>
<path fill-rule="evenodd" clip-rule="evenodd" d="M116.017 113C116.017 113 114.961 116.291 114.492 118.363C114.396 118.788 114.218 119.436 114 120.213C119.027 137.931 132.062 154.403 134.333 155.999C134.333 155.999 134.614 156.012 135 155.916C133.195 153.376 122.044 137.04 116.017 113Z" fill="#EDD4ED"/>
<path fill-rule="evenodd" clip-rule="evenodd" d="M107.891 76.8026C104.94 79.161 102.767 80.5872 104.786 87.8781C106.805 95.1695 106.487 155.888 106.487 155.888C107.247 156.114 108.891 155.928 108.891 155.928C112.17 147.423 115.108 112.83 116.762 112.025C118.417 111.22 119.919 106.871 119.304 104.768C123.084 99.7426 120.304 75.7428 113.367 76.0021C108.994 76.518 107.891 76.8026 107.891 76.8026Z" fill="#1E2978"/>
<path fill-rule="evenodd" clip-rule="evenodd" d="M107.299 156C107.108 143.164 106.935 116.22 109.589 109.393C109.589 109.393 114.168 107.581 118 104.213L106 103C106.708 123.204 106.537 155.897 106.537 155.897C106.743 155.958 107.014 155.988 107.299 156Z" fill="#EDD4ED"/>
<path fill-rule="evenodd" clip-rule="evenodd" d="M105.926 106.358C105.713 97.3576 105.36 90.3047 104.786 88.1783C102.767 80.703 104.94 79.2407 107.891 76.8229C107.891 76.8229 108.994 76.531 113.367 76.0021C120.304 75.7363 123.084 100.342 119.304 105.494C114.466 107.659 109.098 107.051 105.926 106.358Z" fill="#C8CEEB"/>
<path fill-rule="evenodd" clip-rule="evenodd" d="M114 80.8535C115.209 84.7385 115.11 96.598 115.11 96.598C115.635 98.8644 118.681 103 118.681 103C120.79 100.722 121.991 95.6544 121.991 95.6544C122.281 92.4728 115.406 80 115.406 80L114 80.8535Z" fill="#4058E0"/>
<path fill-rule="evenodd" clip-rule="evenodd" d="M114.215 77.7876C115.008 78.5558 115 80.2524 115 80.2524C114.689 80.7286 113.699 81 113.699 81C112.707 80.6889 112 79.4827 112 79.4827C112 79.4827 112.334 77.0952 112.548 77.0063C112.762 76.9178 114.215 77.7876 114.215 77.7876Z" fill="#4760F5"/>
<path fill-rule="evenodd" clip-rule="evenodd" d="M108.572 75.054C107.405 75.8119 107 77.4119 107 77.4119C107.958 79.4055 111.536 83 111.536 83C112.012 81.4525 112.35 78.0144 112.35 78.0144C113.192 78.2461 114.997 80.1391 114.997 80.1391C115.06 78.3421 114.138 75.4817 111.987 75.1768C109.837 74.8718 108.572 75.054 108.572 75.054Z" fill="#DBE1FF"/>
<path fill-rule="evenodd" clip-rule="evenodd" d="M108 72C108.949 73.4319 108.403 75.5565 108.403 75.5565C109.63 77.1068 112.816 77.7115 112.978 75.825C113.141 73.9384 112.35 72.9001 112.35 72.9001L108 72Z" fill="#FFC4A2"/>
<path fill-rule="evenodd" clip-rule="evenodd" d="M133.246 155.789C132.86 156.472 132.937 157.782 133.417 157.981C133.776 158.13 137.717 157.363 139.691 156.965C140.075 156.888 140.112 156.375 139.742 156.251C138.144 155.718 135.307 155 135.307 155L133.246 155.789Z" fill="#330F32"/>
<path fill-rule="evenodd" clip-rule="evenodd" d="M106 156L111 155.883C109.802 151.935 106.907 152.107 106 156Z" fill="#330F32"/>
<path fill-rule="evenodd" clip-rule="evenodd" d="M117.516 64.1355C116.266 62.9085 115.808 59.7645 115.141 59.2573C114.474 58.7502 110.972 59.0608 110.554 59.5993C110.137 60.1369 107.837 63.0792 107.734 63.2573C107.631 63.4359 106.992 66.2604 107 66.5057C107.008 66.751 110.336 70.2687 110.593 70.4017C110.851 70.5347 115.292 71.3548 115.529 70.8219C115.766 70.2889 117.458 68.7674 117.471 68.0305C117.485 67.2932 118 65.1738 118 65.1738L117.516 64.1355Z" fill="#FFC4A2"/>
<path fill-rule="evenodd" clip-rule="evenodd" d="M107 65.2855C107.171 64.4118 107.388 63.4074 107.442 63.3027C107.525 63.1431 109.166 60.7899 109.801 59.8786C110.14 59.6901 110.407 59.5315 110.507 59.4263C110.617 59.31 110.988 59.1998 111.433 59.103C112.166 58.9918 113.011 58.9616 113.581 59.0574L113.672 59.9767C113.199 61.5432 112.335 62.4085 111.921 61.9256C111.507 61.4422 109.812 62.3029 109.779 64.2587C109.746 66.2146 110.619 68.8241 113.681 66.6166C115.956 67.1023 114.723 70.1821 114.13 70.5115C113.904 70.6371 113.171 70.8283 112.345 71C111.259 70.8437 110.147 70.5934 110.028 70.5245C109.879 70.4385 108.591 68.9488 107.682 67.8234C107.458 66.9785 107.19 66.0601 107 65.2855Z" fill="#EDD4ED"/>
<path fill-rule="evenodd" clip-rule="evenodd" d="M111.749 52.0196C116.429 52.5796 115.893 58.8627 112.976 60.0002C112.431 60.0159 112.57 59.2206 112.57 59.2206C111.681 60.5118 109.172 60.6884 107.798 62.2042C106.423 63.72 107.999 66.9974 109.762 67.4748C111.526 67.9518 111.972 66.4627 113.364 65.5263C114.757 64.5904 117.009 65.0009 116.19 63.231C118.263 64.9124 121.48 68.2488 119.237 71.7403C119.963 75.8327 109.882 80.3385 107.703 73.387C107.081 74.5121 103.943 73.7574 104.624 69.2028C103.721 66.4863 101.299 64.1296 101.012 61.8702C100.724 59.6109 105.922 58.0388 106.807 56.59C107.691 55.1411 109.166 51.7105 111.749 52.0196Z" fill="#330F32"/>
<path fill-rule="evenodd" clip-rule="evenodd" d="M113.018 68.5439C112.347 70.4578 109.003 69.4032 107.602 66.4891C106.201 63.575 107.239 60.2181 110.777 58.5411C114.314 56.8649 114.159 53.0814 112.167 52C116.61 52.5606 116.101 58.85 113.332 59.9887C112.814 60.0044 112.947 59.2083 112.947 59.2083C112.102 60.5007 109.721 60.6776 108.416 62.1949C107.112 63.7122 108.607 66.9929 110.281 67.4708C111.955 67.9482 112.379 66.4572 113.7 65.5204C115.022 64.5835 117.161 64.9944 116.383 63.2227C118.351 64.9058 121.405 68.2456 119.276 71.7405C119.76 74.6204 115.176 77.6994 111.69 76.8594C113.469 76.9541 116.864 75.7162 116.837 73.418C114.913 74.3997 116.38 71.7687 116.148 70.0205C115.553 71.4242 113.352 70.6587 113.018 68.5439Z" fill="#171417"/>
<path fill-rule="evenodd" clip-rule="evenodd" d="M109.837 108C110.764 112.973 107.455 113.041 107 109.68C107.928 108.492 109.837 108 109.837 108Z" fill="#192263"/>
<path fill-rule="evenodd" clip-rule="evenodd" d="M107.943 66.0934C108.168 66.8911 107.704 67.7191 106.907 67.9435C106.11 68.1679 105.281 67.7039 105.057 66.9067C104.832 66.1096 105.296 65.2811 106.093 65.0567C106.891 64.8318 107.719 65.2963 107.943 66.0934Z" fill="#FFC4A2"/>
<path fill-rule="evenodd" clip-rule="evenodd" d="M106 66.2173C106.247 66.1286 106.439 66.1503 106.587 66.237C106.26 66.4491 106.389 66.9263 106.57 66.9829C106.435 66.8439 106.481 66.4087 106.724 66.3495C106.877 66.514 106.961 66.7614 106.997 67C107.043 66.0414 106.456 65.753 106 66.2173Z" fill="#EDD4ED"/>
<path fill-rule="evenodd" clip-rule="evenodd" d="M108.367 107C109.41 107.327 109.579 107.995 110.298 107.728C111.017 107.46 111.229 107.906 110.721 108.218C110.214 108.53 109.96 108.53 109.96 108.53C109.749 109.332 108.226 110 107.761 110C107.211 109.242 107 107.773 107 107.773L108.367 107Z" fill="#FFC4A2"/>
<path fill-rule="evenodd" clip-rule="evenodd" d="M105 91.697C105.269 94.8527 105.463 99.4817 105.601 104.887C105.947 105.199 106.314 105.513 106.705 105.828C107.062 105.89 107.435 105.947 107.826 106C108.624 100.78 106.418 91 106.418 91C105.912 91.211 105.441 91.4455 105 91.697Z" fill="#EDD4ED"/>
<path fill-rule="evenodd" clip-rule="evenodd" d="M105.063 79C90.8476 88.9342 92.14 101.382 106.12 106.887C107.06 107.366 108 106.169 108 106.169C106.825 103.775 103.771 100.903 103.183 97.1923C102.596 93.4824 106.12 90.8491 106.708 90.7293C108.822 87.3784 107.178 80.5559 105.063 79Z" fill="#DBE1FF"/>
<path fill-rule="evenodd" clip-rule="evenodd" d="M106.319 91C99.6082 93.8389 98.2875 100.099 108 107C106.729 104.501 103.425 101.501 102.789 97.6274C102.217 94.1386 105.245 91.5689 106.319 91Z" fill="#EDD4ED"/>
<path fill-rule="evenodd" clip-rule="evenodd" d="M146.268 156C145.876 156 145.551 155.692 145.538 155.3L142 56.7516C141.986 56.3507 142.302 56.0147 142.706 56.0004C143.076 55.9871 143.448 56.2991 143.463 56.6996L147 155.248C147.014 155.649 146.699 155.985 146.294 156C146.286 156 146.277 156 146.268 156Z" fill="#330F32"/>
<path fill-rule="evenodd" clip-rule="evenodd" d="M145.72 78.1696C144.469 76.9448 143 76.455 143 77.827C143 79.1985 143.326 81.0111 143.272 82.0887C143.218 83.1668 143.109 84.8814 144.686 83.4607C146.264 82.0399 146.155 79.4924 145.72 78.1696Z" fill="#FFC4A2"/>
<path fill-rule="evenodd" clip-rule="evenodd" d="M142 58L170 58.9371L142.475 71L142 58Z" fill="#4760F5"/>
<path fill-rule="evenodd" clip-rule="evenodd" d="M242.43 214.421C241.074 213.332 239.328 212.843 237.602 212.965C235.66 213.102 235.285 212.542 232.195 212.054C228.516 211.473 227.335 215.709 227.773 218.817C228.212 221.925 228.719 230.738 227.2 238.218C225.681 245.698 217.682 255.331 228.819 258.097C239.957 260.864 262.638 257.687 254.133 242.727C245.628 227.766 244.21 223.667 244.413 218.749C244.497 216.699 243.556 215.326 242.43 214.421Z" fill="#330F32"/>
<path fill-rule="evenodd" clip-rule="evenodd" d="M225 245.782C226.02 243.096 227.328 240.295 227.856 237.748C229.38 230.398 228.873 221.739 228.432 218.685C228.004 215.714 229.121 211.709 232.579 212.017C232.306 213.921 233.927 216.21 237.305 217.31C240.709 218.417 242.843 220.783 241.674 225.364C240.505 229.945 240.048 234.124 242.436 237.245C244.824 240.366 250.767 253.858 238.575 254.864C227.648 255.767 225.903 252.097 225 245.782Z" fill="#171417"/>
<path fill-rule="evenodd" clip-rule="evenodd" d="M228.038 240C225.368 249.986 214 253.197 214 253.197V255.336C218.736 257.387 227.004 254.444 229.244 249.808C231.483 245.172 228.038 240 228.038 240Z" fill="#192263"/>
<path fill-rule="evenodd" clip-rule="evenodd" d="M242.349 278C246.39 288.71 241.743 310 241.743 310L239.789 309.868C240.328 303.742 237.277 293.748 235.681 287.19C234.882 283.909 235.007 280.843 235.007 280.843L242.349 278Z" fill="#F5B998"/>
<path fill-rule="evenodd" clip-rule="evenodd" d="M235 282.031L238.557 279.466L242.346 278C246.37 288.655 241.792 309.766 241.742 310C241.734 309.858 241.733 309.708 241.74 309.548C243.358 303.397 242.591 279.34 242.009 280.513C241.402 281.736 238.808 283.653 235 282.036V282.031Z" fill="#EDD4ED"/>
<path fill-rule="evenodd" clip-rule="evenodd" d="M230.496 279.951C233.625 290.105 221.149 305.152 221.257 308.854C220.597 309.862 218.937 310 218.937 310L218 309.419C218.171 309.517 219.384 308.342 219.767 307.099C220.151 305.856 224.046 285.2 223.216 277.809C222.386 270.418 230.496 279.951 230.496 279.951Z" fill="#F5B998"/>
<path fill-rule="evenodd" clip-rule="evenodd" d="M231.317 283.179C230.508 281.457 226.785 280.048 224.897 277.125L230.474 277C231.604 278.013 232.433 278.882 232.433 278.882C235.957 289.112 221.904 304.27 222.025 308C221.418 305.314 232.127 284.902 231.317 283.179Z" fill="#EDD4ED"/>
<path fill-rule="evenodd" clip-rule="evenodd" d="M217.224 308.583C217.332 308.554 217.436 308.525 217.537 308.494C217.785 308.419 218.018 308.358 218.242 308.302C219.104 308.391 221.102 308.223 221.772 308C222.021 308.251 222.463 309.042 220.543 308.989C218.977 308.946 219.172 309.018 217.393 308.996C216.973 308.99 216.848 308.683 217.224 308.583Z" fill="#330F32"/>
<path fill-rule="evenodd" clip-rule="evenodd" d="M242.389 308.47L243 309H239L239.593 308.478C240.314 307.844 241.661 307.84 242.389 308.47Z" fill="#330F32"/>
<path fill-rule="evenodd" clip-rule="evenodd" d="M232.153 234.772C228.629 236.464 226.751 240.408 227.338 244.469C227.925 248.529 227.455 263.03 221 275.212C224.404 286.696 243.066 284.26 246 275.792C241.071 262.102 238.489 252.937 240.249 246.673C242.009 240.408 243.096 236.255 239.031 234.677C234.967 233.1 232.153 234.772 232.153 234.772Z" fill="#DBE1FF"/>
<path fill-rule="evenodd" clip-rule="evenodd" d="M220 275.538C226.514 263.291 226.988 248.71 226.395 244.628C225.816 240.636 227.62 236.761 231.026 235L231.192 235.064C230.127 237.98 229.12 244.686 229.653 245.794C230.186 246.902 232.851 248.244 231.726 248.185C230.6 248.127 229.476 246.086 229.12 247.252C228.764 248.419 227.758 264.136 227.758 264.136C227.047 264.136 226.336 263.086 226.336 263.086C226.404 265.822 223.271 274.86 221.778 279C221.013 278.024 220.399 276.879 220 275.538Z" fill="#EDD4ED"/>
<path fill-rule="evenodd" clip-rule="evenodd" d="M239.502 246.932C238.629 250.195 238.882 254.253 239.98 259.313C238.913 260.806 237.12 262.625 234.18 264C233.607 260.347 234.231 243.377 238.533 235C242.17 236.644 241.152 240.765 239.502 246.932Z" fill="#1E2978"/>
<path fill-rule="evenodd" clip-rule="evenodd" d="M226 260.25C227.216 253.152 227.239 247.055 226.944 244.648C226.449 240.608 228.032 236.684 231 235C228.526 241.532 227.636 263 227.636 263C227.025 262.412 226.449 261.415 226 260.25Z" fill="#1E2978"/>
<path fill-rule="evenodd" clip-rule="evenodd" d="M232.672 229.417C233.542 232.607 232.034 233.87 232.034 233.87C231.558 235.962 236.173 237.409 239 233.781C237.159 232.005 236.671 228 236.671 228L232.672 229.417Z" fill="#FFC4A2"/>
<path fill-rule="evenodd" clip-rule="evenodd" d="M237.465 234.282C237.747 233.193 236.165 230.994 235.754 228.345L235.794 228.311L236.671 228C236.671 228 237.159 232.005 239 233.781C236.173 237.41 231.558 235.962 232.034 233.869C232.366 236.452 237.183 235.372 237.465 234.282Z" fill="#EDD4ED"/>
<path fill-rule="evenodd" clip-rule="evenodd" d="M229.683 214.732C228.238 218.627 229.276 220.175 228.723 221.652C227.571 224.732 227.63 228.296 230.122 229.549C232.997 230.994 237.448 228.731 238.286 226.094C240.847 226.272 240.219 222.96 238.483 223.632C238.339 222.042 239.049 219.719 235.689 218.802C232.33 217.884 230.51 215.992 230.491 214C230.08 216.978 229.683 214.732 229.683 214.732Z" fill="#FFC4A2"/>
<path fill-rule="evenodd" clip-rule="evenodd" d="M239 224.086C238.706 224.049 238.487 224.144 238.334 224.291C238.77 224.431 238.684 224.732 238.46 224.803C238.593 224.645 238.494 224.454 238.213 224.441C238.093 224.624 238.043 224.84 238.058 225C237.827 224.378 238.316 223.771 239 224.086Z" fill="#EDD4ED"/>
<path fill-rule="evenodd" clip-rule="evenodd" d="M230.862 214C230.882 215.993 232.822 217.886 236.404 218.804C239.986 219.722 239.229 222.046 239.383 223.636C241.233 222.964 241.903 226.278 239.173 226.1C238.376 228.453 234.517 230.501 231.517 229.891C231.511 229.878 231.503 229.865 231.498 229.852C240.124 228.369 237.429 219.927 234.81 219.048C232.191 218.17 231.249 217.311 231.01 216.122C230.654 216.508 230.167 215.991 230 214.733C230 214.733 230.424 216.98 230.862 214Z" fill="#EDD4ED"/>
<path fill-rule="evenodd" clip-rule="evenodd" d="M238 226.516C238.009 226.792 238.24 227.009 238.516 227C238.792 226.991 239.008 226.76 239 226.484C238.991 226.208 238.761 225.991 238.484 226C238.209 226.009 237.992 226.24 238 226.516Z" fill="white"/>
<path fill-rule="evenodd" clip-rule="evenodd" d="M242.398 274.384H246.601V271.615H242.398V274.384ZM242 275H247V271H242V275Z" fill="#330F32"/>
<path fill-rule="evenodd" clip-rule="evenodd" d="M236.782 287H251.218C251.65 287 252 286.641 252 286.199V274.801C252 274.359 251.65 274 251.218 274H236.782C236.35 274 236 274.359 236 274.801V286.199C236 286.641 236.35 287 236.782 287Z" fill="#330F32"/>
<path fill-rule="evenodd" clip-rule="evenodd" d="M237.047 280L236 276.98V274.206C236 273.54 236.534 273 237.192 273H250.807C251.466 273 252 273.54 252 274.206V280H237.047Z" fill="#52154F"/>
<path fill-rule="evenodd" clip-rule="evenodd" d="M240 287H237.247C236.559 287 236 286.451 236 285.775V275.192C236 274.609 236.415 274.125 236.968 274C239.473 275.306 239.921 283.766 240 287Z" fill="#1F081E"/>
<path fill-rule="evenodd" clip-rule="evenodd" d="M246 281H247V280H246V281Z" fill="#DBE1FF"/>
<path fill-rule="evenodd" clip-rule="evenodd" d="M244.088 268.607C243.47 269.214 243.129 269.094 243.067 269.751C243.005 270.409 241.745 270.15 242.046 270.58C242.157 270.738 242.587 270.795 243.392 270.643C243.515 271.099 243.593 271.946 244.088 271.997C244.583 272.047 247.119 271.541 246.996 270.529C246.872 269.517 245.573 268 245.573 268L244.088 268.607Z" fill="#F5B998"/>
<path fill-rule="evenodd" clip-rule="evenodd" d="M240.818 236C244.571 239.779 246 267.177 246 267.177C244.928 268.294 244.034 267.95 244.034 267.95C242.962 266.061 238.406 255.84 238.048 249.656C237.691 243.472 239.388 236.43 240.818 236Z" fill="#192263"/>
<path fill-rule="evenodd" clip-rule="evenodd" d="M244.284 267.954C243.166 266.002 238.418 255.444 238.046 249.056C238.007 248.377 237.995 247.689 238.002 247C238.935 252.437 242.971 262.129 245 267.961C244.567 268.052 244.284 267.954 244.284 267.954Z" fill="#3D303D"/>
<path fill-rule="evenodd" clip-rule="evenodd" d="M243.469 271.998C243.21 271.977 243.084 271.759 243 271.522C243.582 271.781 245.486 271.574 245.996 271C246.103 271.688 243.899 272.032 243.469 271.998Z" fill="#EDD4ED"/>
<path fill-rule="evenodd" clip-rule="evenodd" d="M209 254.5C209 255.881 210.119 257 211.5 257C212.881 257 214 255.881 214 254.5C214 253.119 212.881 252 211.5 252C210.119 252 209 253.119 209 254.5Z" fill="#F5B998"/>
<path fill-rule="evenodd" clip-rule="evenodd" d="M210.463 252C211.045 252 211.572 252.273 211.993 252.712C211.994 252.739 212 252.765 212 252.793C212 254.565 210.897 256 209.536 256C208.955 256 208.427 255.727 208.006 255.288C208.006 255.261 208 255.235 208 255.207C208 253.435 209.103 252 210.463 252Z" fill="#EDD4ED"/>
<path fill-rule="evenodd" clip-rule="evenodd" d="M18.1854 283.187C15.3415 288.119 15.5891 293.082 17.1344 299.606C18.6802 306.129 19.1441 308.202 19.1905 309.07C19.2364 309.938 19.8857 309.844 19.8857 309.844L21.4005 310L21.7404 309.518C21.0602 309.158 20.5659 308.658 20.7204 307.753C20.8748 306.847 25.9756 287.994 26.9334 285.06C27.8917 282.126 18.1854 283.187 18.1854 283.187Z" fill="#FFC4A2"/>
<path fill-rule="evenodd" clip-rule="evenodd" d="M21.1303 308C21.0972 307.822 21.0955 307.625 21.1316 307.402C21.2759 306.508 26.0427 287.891 26.9382 284.994C27.1017 284.466 26.9305 284.07 26.5467 283.774L20.6339 283C19.9044 283.036 19.3104 283.089 19 283.12C21.4874 285.969 23.8759 286.951 23.8759 286.951C22.3315 291.345 20.5762 307.045 21.1303 308Z" fill="#EDD4ED"/>
<path fill-rule="evenodd" clip-rule="evenodd" d="M19.0076 308.013L19.0062 308.007L18.9924 307.987L19.0076 308.013Z" fill="#FFC4A2"/>
<path fill-rule="evenodd" clip-rule="evenodd" d="M44.632 307.359C43.6852 303.65 40.5188 290.184 41.3851 279L30.0345 282.894C29.2039 291.251 43.6617 308.345 43.6617 308.345C43.4541 308.677 43.0463 309.746 44.4303 309.793C45.5598 309.832 45.4119 309.919 46.6915 309.999C46.994 310.018 47.1183 309.601 46.8601 309.438C46.786 309.391 46.7146 309.344 46.6454 309.294C45.6746 308.609 44.9313 308.531 44.632 307.359Z" fill="#FFC4A2"/>
<path fill-rule="evenodd" clip-rule="evenodd" d="M40.371 279L31.2559 282.025L29 283.396C31.4137 285.483 37.9573 284.471 38.1478 284.598C38.0204 287.254 40.371 303.888 43.9916 308C43.9949 307.988 43.9977 307.977 44 307.966C43.888 307.794 43.7927 307.593 43.7236 307.331C42.7455 303.626 39.4765 290.173 40.371 279Z" fill="#EDD4ED"/>
<path fill-rule="evenodd" clip-rule="evenodd" d="M52.0558 226.048C51.6229 224.521 53.8426 219.965 54.1248 220C54.4071 220.036 54.4755 220.534 54.2717 221.193C54.0684 221.851 53.8091 223.258 54.4277 223.332C55.0462 223.407 55.493 223.801 55.8155 224.797C56.1384 225.792 56.3101 226.573 53.9067 228C52.2333 227.828 52.0558 226.048 52.0558 226.048Z" fill="#FFC4A2"/>
<path fill-rule="evenodd" clip-rule="evenodd" d="M21.7134 230.502C21.0688 230.656 20.4861 231.023 20.0663 231.55C7.80633 246.948 11.0556 252.653 19.6294 250.595C28.3521 248.502 23.8263 230 23.8263 230L21.7134 230.502Z" fill="#293387"/>
<path fill-rule="evenodd" clip-rule="evenodd" d="M20.2573 239C17.4862 242.416 14.6789 248.246 20.0428 247.992C22.0633 242.416 20.2573 239 20.2573 239Z" fill="#EDD4ED"/>
<path fill-rule="evenodd" clip-rule="evenodd" d="M25.1861 228C22.6625 227.971 20.3577 229.609 19.6578 232.078C18.051 237.747 19.2936 246.063 18.2851 256.041C16.9942 268.814 11 277.548 11 277.83C13.951 283.746 36.1758 288.442 43 276.984C41.9106 258.12 35.2387 240.434 31.8232 232.473C30.6683 229.781 28.0715 228.034 25.1861 228Z" fill="#4760F5"/>
<path fill-rule="evenodd" clip-rule="evenodd" d="M39 249.716C36.7465 242.295 34.2213 236.174 32.5029 232.354C31.3234 229.733 28.6722 228.033 25.7268 228C23.1504 227.971 20.7973 229.566 20.0827 231.969C18.6849 236.671 19.3949 243.248 19 251.097C28.2072 253.266 35.7492 251.011 39 249.716Z" fill="#0F143B"/>
<path fill-rule="evenodd" clip-rule="evenodd" d="M44 277.43C43.2627 264.404 39.9175 251.942 36.815 242.853C35.2708 237.858 32 236 32 236C35.0914 253.019 34.7119 274.942 33.7948 284C38.0164 283.185 41.815 281.174 44 277.43Z" fill="#3D303D"/>
<path fill-rule="evenodd" clip-rule="evenodd" d="M30 231.375C36.666 236.581 47.9289 236.261 53.2111 227.017C54.9579 226.788 55 228.931 55 228.931C50.5816 247.145 38.9044 243.421 34.5571 240.787C30.0009 238.027 30 231.375 30 231.375Z" fill="#293387"/>
<path fill-rule="evenodd" clip-rule="evenodd" d="M38 242.092C43.152 244.104 51.4706 244.038 55 228.243C55 228.243 54.9857 227.57 54.6975 227C50.5217 241.073 43.2427 242.579 38 242.092Z" fill="#EDD4ED"/>
<path fill-rule="evenodd" clip-rule="evenodd" d="M54.2918 220C54.154 219.98 53.5087 221.384 53 222.943C53.5392 222.358 53.7958 224.051 53.945 223.944C54.3595 223.763 54.8481 224.481 54.8429 224.718C55.2325 224.743 55.9916 225.898 55.763 227C56.1273 226.345 56.006 225.796 55.8337 225.169C55.5392 224.096 55.1321 223.671 54.5676 223.591C54.0035 223.511 54.2399 221.994 54.4258 221.285C54.6116 220.576 54.5488 220.039 54.2918 220Z" fill="#EDD4ED"/>
<path fill-rule="evenodd" clip-rule="evenodd" d="M46.8428 308.661C46.7595 308.632 46.6792 308.603 46.6014 308.574C46.4104 308.502 46.231 308.442 46.0572 308.387C45.3503 308.429 43.7602 308.213 43.2479 308C43.0147 308.201 42.5563 308.846 44.1118 308.875C45.3818 308.899 45.2151 308.951 46.6533 309C46.9932 309.011 47.133 308.759 46.8428 308.661Z" fill="#330F32"/>
<path fill-rule="evenodd" clip-rule="evenodd" d="M22.8241 308.598C22.7387 308.57 22.6557 308.54 22.5752 308.51C22.3776 308.435 22.1926 308.374 22.0141 308.318C21.3217 308.399 19.7247 308.222 19.1917 308C18.9875 308.243 18.618 309.01 20.1566 308.972C21.4127 308.941 21.2548 309.009 22.6808 308.999C23.0177 308.997 23.1233 308.699 22.8241 308.598Z" fill="#330F32"/>
<path fill-rule="evenodd" clip-rule="evenodd" d="M21 229.369C22.4266 231.65 27.8774 231.218 29 230.016C28.5791 228.784 23.9002 226.536 21 229.369Z" fill="white"/>
<path fill-rule="evenodd" clip-rule="evenodd" d="M31.5658 213C31.3896 215.034 30.7806 216.476 31.3707 218.536C31.9607 220.596 32.7546 223.785 30.481 223.981C28.2079 224.176 25.0123 222.845 25.0006 222.199C24.9883 221.552 25.1798 218.09 25.4779 217.556C25.7755 217.022 31.5658 213 31.5658 213Z" fill="#FFC4A2"/>
<path fill-rule="evenodd" clip-rule="evenodd" d="M31.4503 213C31.4503 213 31.3226 213.07 31.1073 213.189L29 215.964C29.177 218.478 30.6768 219.396 30.5445 221.265C30.4881 222.06 30.1496 223.076 29.5447 224C29.7256 223.999 29.9039 223.993 30.077 223.981C32.9553 223.785 31.9503 220.596 31.2033 218.536C30.4563 216.476 31.2273 215.035 31.4503 213Z" fill="#EDD4ED"/>
<path fill-rule="evenodd" clip-rule="evenodd" d="M23.4669 226C23.6668 227.82 23 229.388 23 229.388C23.9999 230.267 27.9336 230.079 28.5332 229.576C27.7332 228.133 28.0668 226.816 28.0668 226.816C30.3332 226.816 31 226.188 31 226.188L23.4669 226Z" fill="#FFC4A2"/>
<path fill-rule="evenodd" clip-rule="evenodd" d="M29.6596 225C29.1831 225.54 28.6309 225.913 28 226C30.3185 226 31 225.05 31 225.05L29.6596 225Z" fill="#EDD4ED"/>
<path fill-rule="evenodd" clip-rule="evenodd" d="M26.3653 211.851C29.7579 208.224 34.3299 210.324 33.2975 214.715C32.2651 219.105 27.9879 220.919 31.1835 222.445C34.3791 223.972 34.1334 225.786 33.838 226.979C33.838 227.026 16.6306 226.979 16.6306 226.979C17.122 224.974 14.2217 223.972 15.205 221.157C16.1883 218.341 19.0394 219.201 19.2856 215.812C19.5313 212.424 23.8085 212.09 26.3653 211.851Z" fill="#33110B"/>
<path fill-rule="evenodd" clip-rule="evenodd" d="M31.8517 226.979C32.1221 225.786 32.3478 223.972 29.4173 222.445C26.4873 220.918 30.409 219.105 31.3556 214.714C32.3027 210.324 28.1102 208.225 25 211.851C27.2087 211.183 29.192 212.71 28.2454 215.001C27.2988 217.291 23.1968 220.775 26.3972 223.113C28.0939 224.353 28.5321 225.857 28.5736 227C30.4907 226.999 31.8517 226.993 31.8517 226.979Z" fill="#171417"/>
</g>
</svg>
