<svg width="285" height="68" viewBox="0 0 285 68" fill="none" xmlns="http://www.w3.org/2000/svg">
<path d="M19.44 67V61.36H15.36C14.64 61.36 14.16 61.18 13.8 60.82C13.44 60.4 13.32 59.86 13.32 59.14V41.62H20.22V35.98H13.32V25.96L6.48002 28.78V35.98H0.900024V41.62H6.48002V59.14C6.48002 61.66 7.08002 63.52 8.28002 64.84C9.54002 66.28 11.52 67 14.22 67H19.44Z" fill="white"/>
<path fill-rule="evenodd" clip-rule="evenodd" d="M49.14 64.3C46.38 66.64 42.96 67.84 38.82 67.84C34.2 67.84 30.54 66.4 27.84 63.58C24.96 60.64 23.52 56.62 23.52 51.46C23.52 46.84 24.84 43 27.6 39.88C30.24 36.7 33.9 35.14 38.52 35.14C43.62 35.14 47.52 36.82 50.22 40.3C52.68 43.42 53.94 47.8 53.94 53.38H30.72C30.96 56.26 31.74 58.48 33.06 59.98C34.38 61.48 36.3 62.26 38.76 62.26C40.86 62.26 42.54 61.78 43.86 60.82C44.88 60.04 45.78 58.78 46.62 57.04H53.46C52.74 59.92 51.3 62.38 49.14 64.3ZM30.84 48.22H46.8C46.2 43.18 43.5 40.72 38.7 40.72C36.42 40.72 34.68 41.32 33.36 42.64C32.1 43.9 31.26 45.76 30.84 48.22Z" fill="white"/>
<path fill-rule="evenodd" clip-rule="evenodd" d="M75.66 66.46C73.68 67.36 71.34 67.84 68.64 67.84C65.4 67.84 62.88 67 61.02 65.38C59.1 63.7 58.14 61.6 58.14 59.02C58.14 55.54 59.46 52.84 62.22 50.98C64.74 49.18 68.28 48.22 72.84 48.1L79.62 47.92V46.72C79.62 42.64 77.4 40.66 72.96 40.66C71.04 40.66 69.54 40.96 68.4 41.68C67.08 42.46 66.18 43.66 65.82 45.28L59.04 44.74C59.7 41.32 61.38 38.8 64.08 37.24C66.36 35.8 69.48 35.14 73.44 35.14C78 35.14 81.42 36.28 83.58 38.56C85.5 40.54 86.46 43.42 86.46 47.2V67H80.1V62.92C78.9 64.48 77.4 65.62 75.66 66.46ZM66.54 61.48C67.5 62.2 68.7 62.62 70.2 62.62C72.84 62.62 75.06 61.84 76.86 60.34C78.66 58.78 79.62 56.8 79.62 54.4V52.84L73.32 53.02C67.86 53.14 65.16 55.06 65.16 58.78C65.16 59.86 65.58 60.76 66.54 61.48Z" fill="white"/>
<path d="M100.5 67V48.4C100.5 46.36 101.1 44.56 102.3 43.12C103.5 41.56 105.06 40.84 107.04 40.84C111.12 40.84 113.16 43.18 113.16 47.92V67H120V48.04C120 45.76 120.54 44.02 121.74 42.76C122.88 41.44 124.26 40.84 125.94 40.84C128.34 40.84 130.02 41.38 131.1 42.52C132.12 43.6 132.66 45.4 132.66 47.86V67H139.5V46.66C139.5 43.24 138.42 40.48 136.38 38.32C134.22 36.16 131.58 35.14 128.4 35.14C126.3 35.14 124.56 35.5 123.18 36.22C121.62 36.94 120.12 38.26 118.68 40.18C116.7 36.82 113.46 35.14 108.9 35.14C105.9 35.14 103.08 36.46 100.5 39.16V35.98H93.66V67H100.5Z" fill="white"/>
<path d="M162.54 67V61.36H158.46C157.74 61.36 157.26 61.18 156.9 60.82C156.54 60.4 156.42 59.86 156.42 59.14V41.62H163.32V35.98H156.42V25.96L149.58 28.78V35.98H144V41.62H149.58V59.14C149.58 61.66 150.18 63.52 151.38 64.84C152.64 66.28 154.62 67 157.32 67H162.54Z" fill="white"/>
<path d="M175.26 67V49.66C175.26 47.02 175.86 44.92 177.12 43.24C178.32 41.56 180 40.72 182.16 40.72C184.5 40.72 186.24 41.44 187.44 42.94C188.46 44.32 189 46.36 189 49V67H195.84V47.8C195.84 43.66 194.94 40.54 193.2 38.44C191.34 36.22 188.52 35.14 184.74 35.14C182.76 35.14 181.02 35.5 179.52 36.28C177.84 37.12 176.4 38.38 175.26 40.12V23.32H168.42V67H175.26Z" fill="white"/>
<path d="M211.08 67V35.98H204.24V67H211.08Z" fill="white"/>
<path d="M226.38 67V48.34C226.62 45.88 227.46 43.96 228.9 42.64C230.16 41.44 231.66 40.84 233.34 40.84C238.02 40.84 240.36 43.36 240.36 48.46V67H247.2V47.86C247.2 39.34 243.3 35.14 235.56 35.14C233.7 35.14 232.02 35.5 230.46 36.28C228.96 37 227.58 38.14 226.38 39.58V35.98H219.54V67H226.38Z" fill="white"/>
<path d="M261.24 67V56.14L264.36 53.2L275.22 67H283.98L269.04 48.82L282.78 35.98H273.96L261.24 48.28V23.32H254.4V67H261.24Z" fill="white"/>
<path fill-rule="evenodd" clip-rule="evenodd" d="M214.965 7.12783C214.861 8.0405 214.534 8.8854 214.039 9.60653C213.802 9.32979 213.547 9.07086 213.276 8.83186C213.741 8.15997 214.314 7.58264 214.965 7.12783ZM215.921 5.48542C215.434 2.37747 212.745 0 209.5 0C206.687 0 204.291 1.78754 203.386 4.28886C202.302 3.47932 200.957 3 199.5 3C195.91 3 193 5.91015 193 9.5C193 10.1562 193.097 10.7898 193.278 11.387C191.299 12.8272 190 15.2518 190 18C190 22.4183 193.358 26 197.5 26C197.845 26 198.185 25.9751 198.518 25.9269C199.613 28.8974 202.326 31 205.5 31C208.752 31 211.52 28.7924 212.56 25.7056C213.173 25.8969 213.824 26 214.5 26C217.723 26 220.398 23.6546 220.911 20.5776C223.87 19.5066 226 16.5186 226 13C226 8.58172 222.642 5 218.5 5C217.594 5 216.725 5.17139 215.921 5.48542ZM221 19.4608C223.327 18.4139 225 15.9479 225 13C225 9.07223 222.03 6 218.5 6C217.619 6 216.773 6.19123 216 6.53927C215.991 8.00768 215.496 9.36068 214.666 10.445C215.187 11.2455 215.574 12.1523 215.794 13.1288C218.751 13.7261 220.981 16.3314 221 19.4608ZM215.963 14.1966C218.29 14.8371 220 16.9689 220 19.5C220 19.6052 219.997 19.7097 219.991 19.8134C219.511 19.9356 219.011 20 218.5 20C217.238 20 216.047 19.6071 215.038 18.9227C215.651 17.7637 216 16.4254 216 15C216 14.7288 215.987 14.4608 215.963 14.1966ZM214.733 13.0041C214.557 12.3637 214.299 11.7638 213.972 11.2174C213.407 11.7532 212.745 12.1886 212.017 12.4949C212.006 12.6616 212 12.83 212 13C212 13.1655 212.005 13.3294 212.016 13.4917C212.781 13.1748 213.62 13 214.5 13C214.578 13 214.656 13.0014 214.733 13.0041ZM212.154 14.5242C212.865 14.188 213.661 14 214.5 14C214.647 14 214.793 14.0058 214.937 14.0171C214.979 14.3376 215 14.6657 215 15C215 16.196 214.725 17.3126 214.242 18.2873C213.212 17.3274 212.461 16.0224 212.154 14.5242ZM211.056 13.9861C211.019 13.663 211 13.3339 211 13C211 12.9417 211.001 12.8836 211.002 12.8257C210.52 12.9397 210.017 13 209.5 13C208.043 13 206.698 12.5207 205.614 11.7111C205.282 12.631 204.747 13.4543 204.064 14.1277C204.222 14.4313 204.362 14.7469 204.482 15.0731C204.815 15.0249 205.155 15 205.5 15C206.785 15 207.995 15.3449 209.052 15.9526C209.569 15.1606 210.254 14.4882 211.056 13.9861ZM209.884 16.5083C210.249 15.9471 210.713 15.4564 211.251 15.0615C211.659 16.6944 212.538 18.1221 213.724 19.1681C213.4 19.6369 213.023 20.0597 212.604 20.4269C212.098 18.8371 211.136 17.4718 209.884 16.5083ZM208.571 16.832C207.651 16.2999 206.603 16 205.5 16C205.255 16 205.013 16.0148 204.774 16.0436C204.922 16.6697 205 17.3251 205 18C205 18.9084 204.858 19.7815 204.597 20.5953C205.691 21.48 207.047 21.9996 208.498 22C208.177 21.2304 208 20.3859 208 19.5C208 18.5492 208.204 17.646 208.571 16.832ZM209.554 21.9076C209.199 21.1805 209 20.3635 209 19.5C209 18.7603 209.146 18.0548 209.411 17.4106C210.517 18.3073 211.354 19.5773 211.749 21.0613C211.08 21.4775 210.338 21.7688 209.554 21.9076ZM209.01 22.9818C208.842 22.9939 208.672 23 208.5 23C206.907 23 205.43 22.4702 204.215 21.5667C203.276 23.5746 201.569 25.1022 199.504 25.7113C200.496 28.2538 202.839 30 205.5 30C208.291 30 210.732 28.0797 211.632 25.3344C210.557 24.8049 209.649 23.987 209.01 22.9818ZM211.882 24.3383C211.188 23.9619 210.584 23.4407 210.111 22.815C210.759 22.6638 211.375 22.4234 211.948 22.1063C211.982 22.3984 212 22.6967 212 23C212 23.4589 211.959 23.9062 211.882 24.3383ZM212.822 24.7394C212.939 24.1794 213 23.5974 213 23C213 22.4884 212.955 21.9881 212.869 21.5032C213.497 21.0221 214.053 20.4398 214.515 19.7788C215.67 20.5525 217.036 21 218.5 21C218.953 21 219.396 20.9572 219.827 20.8752C219.216 23.2473 217.063 25 214.5 25C213.915 25 213.351 24.9086 212.822 24.7394ZM203.279 14.789C203.357 14.9518 203.43 15.1185 203.496 15.2887C202.992 15.4376 202.508 15.6414 202.052 15.8937C202.037 15.7621 202.025 15.6292 202.016 15.4952C202.465 15.3066 202.888 15.0689 203.279 14.789ZM203.795 16.245C203.25 16.4049 202.732 16.6395 202.251 16.9387C202.543 18.0352 203.076 19.0149 203.781 19.8135C203.924 19.2371 204 18.6295 204 18C204 17.3918 203.929 16.804 203.795 16.245ZM203.424 20.8895C202.51 19.9922 201.805 18.8558 201.396 17.5731C199.942 18.8465 199 20.7875 199 23C199 23.6082 199.071 24.196 199.205 24.755C201.072 24.2074 202.627 22.7822 203.424 20.8895ZM198 23C198 20.3204 199.235 17.9486 201.131 16.4968C201.091 16.2733 201.06 16.0465 201.039 15.8168C200.545 15.9365 200.03 16 199.5 16C196.934 16 194.716 14.5136 193.659 12.3549C192.057 13.6185 191 15.657 191 18C191 21.9278 193.97 25 197.5 25C197.745 25 197.987 24.9852 198.226 24.9564C198.078 24.3303 198 23.6749 198 23ZM211.089 11.7671C210.586 11.9186 210.052 12 209.5 12C208.122 12 206.863 11.4933 205.898 10.6561C205.965 10.2809 206 9.89455 206 9.5C206 9.18404 205.977 8.87334 205.934 8.56943C206.725 8.20229 207.594 8 208.5 8C209.762 8 210.953 8.39288 211.962 9.07727C211.53 9.8954 211.228 10.8028 211.089 11.7671ZM212.193 11.297C212.633 11.0493 213.036 10.7428 213.39 10.3881C213.194 10.1476 212.983 9.92192 212.758 9.71266C212.513 10.207 212.322 10.7378 212.193 11.297ZM214.972 5.93875C213.993 6.49634 213.144 7.27869 212.485 8.22118C211.33 7.44747 209.964 7 208.5 7C207.514 7 206.572 7.20306 205.709 7.57213C205.409 6.60244 204.887 5.72992 204.203 5.01341C204.852 2.69805 206.978 1 209.5 1C212.348 1 214.691 3.16482 214.972 5.93875ZM204.321 8.35597C204.478 8.2436 204.639 8.13736 204.803 8.03759C204.634 7.4218 204.36 6.84925 204.002 6.34016C204.001 6.39326 204 6.44654 204 6.5C204 7.1513 204.113 7.77616 204.321 8.35597ZM203 6.5C203 7.39655 203.182 8.2507 203.51 9.02771C202.801 9.702 202.213 10.5177 201.785 11.4333C200.57 10.5298 199.093 10 197.5 10C196.301 10 195.168 10.3001 194.163 10.8336C194.056 10.4066 194 9.95991 194 9.5C194 6.46243 196.462 4 199.5 4C200.878 4 202.137 4.5067 203.103 5.34393C203.035 5.7191 203 6.10545 203 6.5ZM203.994 9.9561C203.404 10.5654 202.92 11.2945 202.576 12.1105C202.927 12.4545 203.246 12.8336 203.53 13.2426C204.117 12.6107 204.558 11.8407 204.797 10.9866C204.496 10.6716 204.227 10.3264 203.994 9.9561ZM197.5 11C198.952 11 200.309 11.5196 201.404 12.4047C201.162 13.1563 201.022 13.9584 201.003 14.7923C200.525 14.9276 200.021 15 199.5 15C197.281 15 195.368 13.6853 194.499 11.7921C195.402 11.2849 196.425 11 197.5 11ZM202.219 13.1865C202.123 13.5738 202.057 13.9752 202.024 14.3878C202.29 14.2505 202.542 14.0922 202.78 13.9152C202.608 13.6584 202.421 13.415 202.219 13.1865ZM204.987 9.11253C204.908 9.167 204.83 9.22325 204.754 9.28124C204.83 9.41093 204.912 9.53723 204.998 9.65984C204.999 9.60675 205 9.55346 205 9.5C205 9.36973 204.996 9.24053 204.987 9.11253Z" fill="url(#paint0_linear)"/>
<defs>
<linearGradient id="paint0_linear" x1="212.519" y1="44.6609" x2="238.252" y2="2.24203" gradientUnits="userSpaceOnUse">
<stop stop-color="#FA6400"/>
<stop offset="1" stop-color="#F7B500"/>
</linearGradient>
</defs>
</svg>
