<svg width="284" height="68" viewBox="0 0 284 68" fill="none" xmlns="http://www.w3.org/2000/svg">
<path d="M18.54 67V61.36H14.46C13.74 61.36 13.26 61.18 12.9 60.82C12.54 60.4 12.42 59.86 12.42 59.14V41.62H19.32V35.98H12.42V25.96L5.58 28.78V35.98H0V41.62H5.58V59.14C5.58 61.66 6.18 63.52 7.38 64.84C8.64 66.28 10.62 67 13.32 67H18.54Z" fill="black"/>
<path fill-rule="evenodd" clip-rule="evenodd" d="M48.24 64.3C45.48 66.64 42.06 67.84 37.92 67.84C33.3 67.84 29.64 66.4 26.94 63.58C24.06 60.64 22.62 56.62 22.62 51.46C22.62 46.84 23.94 43 26.7 39.88C29.34 36.7 33 35.14 37.62 35.14C42.72 35.14 46.62 36.82 49.32 40.3C51.78 43.42 53.04 47.8 53.04 53.38H29.82C30.06 56.26 30.84 58.48 32.16 59.98C33.48 61.48 35.4 62.26 37.86 62.26C39.96 62.26 41.64 61.78 42.96 60.82C43.98 60.04 44.88 58.78 45.72 57.04H52.56C51.84 59.92 50.4 62.38 48.24 64.3ZM29.94 48.22H45.9C45.3 43.18 42.6 40.72 37.8 40.72C35.52 40.72 33.78 41.32 32.46 42.64C31.2 43.9 30.36 45.76 29.94 48.22Z" fill="black"/>
<path fill-rule="evenodd" clip-rule="evenodd" d="M74.76 66.46C72.78 67.36 70.44 67.84 67.74 67.84C64.5 67.84 61.98 67 60.12 65.38C58.2 63.7 57.24 61.6 57.24 59.02C57.24 55.54 58.56 52.84 61.32 50.98C63.84 49.18 67.38 48.22 71.94 48.1L78.72 47.92V46.72C78.72 42.64 76.5 40.66 72.06 40.66C70.14 40.66 68.64 40.96 67.5 41.68C66.18 42.46 65.28 43.66 64.92 45.28L58.14 44.74C58.8 41.32 60.48 38.8 63.18 37.24C65.46 35.8 68.58 35.14 72.54 35.14C77.1 35.14 80.52 36.28 82.68 38.56C84.6 40.54 85.56 43.42 85.56 47.2V67H79.2V62.92C78 64.48 76.5 65.62 74.76 66.46ZM65.64 61.48C66.6 62.2 67.8 62.62 69.3 62.62C71.94 62.62 74.16 61.84 75.96 60.34C77.76 58.78 78.72 56.8 78.72 54.4V52.84L72.42 53.02C66.96 53.14 64.26 55.06 64.26 58.78C64.26 59.86 64.68 60.76 65.64 61.48Z" fill="black"/>
<path d="M99.6 67V48.4C99.6 46.36 100.2 44.56 101.4 43.12C102.6 41.56 104.16 40.84 106.14 40.84C110.22 40.84 112.26 43.18 112.26 47.92V67H119.1V48.04C119.1 45.76 119.64 44.02 120.84 42.76C121.98 41.44 123.36 40.84 125.04 40.84C127.44 40.84 129.12 41.38 130.2 42.52C131.22 43.6 131.76 45.4 131.76 47.86V67H138.6V46.66C138.6 43.24 137.52 40.48 135.48 38.32C133.32 36.16 130.68 35.14 127.5 35.14C125.4 35.14 123.66 35.5 122.28 36.22C120.72 36.94 119.22 38.26 117.78 40.18C115.8 36.82 112.56 35.14 108 35.14C105 35.14 102.18 36.46 99.6 39.16V35.98H92.76V67H99.6Z" fill="black"/>
<path d="M161.64 67V61.36H157.56C156.84 61.36 156.36 61.18 156 60.82C155.64 60.4 155.52 59.86 155.52 59.14V41.62H162.42V35.98H155.52V25.96L148.68 28.78V35.98H143.1V41.62H148.68V59.14C148.68 61.66 149.28 63.52 150.48 64.84C151.74 66.28 153.72 67 156.42 67H161.64Z" fill="black"/>
<path d="M174.36 67V49.66C174.36 47.02 174.96 44.92 176.22 43.24C177.42 41.56 179.1 40.72 181.26 40.72C183.6 40.72 185.34 41.44 186.54 42.94C187.56 44.32 188.1 46.36 188.1 49V67H194.94V47.8C194.94 43.66 194.04 40.54 192.3 38.44C190.44 36.22 187.62 35.14 183.84 35.14C181.86 35.14 180.12 35.5 178.62 36.28C176.94 37.12 175.5 38.38 174.36 40.12V23.32H167.52V67H174.36Z" fill="black"/>
<path d="M210.18 67V35.98H203.34V67H210.18Z" fill="black"/>
<path d="M225.48 67V48.34C225.72 45.88 226.56 43.96 228 42.64C229.26 41.44 230.76 40.84 232.44 40.84C237.12 40.84 239.46 43.36 239.46 48.46V67H246.3V47.86C246.3 39.34 242.4 35.14 234.66 35.14C232.8 35.14 231.12 35.5 229.56 36.28C228.06 37 226.68 38.14 225.48 39.58V35.98H218.64V67H225.48Z" fill="black"/>
<path d="M260.34 67V56.14L263.46 53.2L274.32 67H283.08L268.14 48.82L281.88 35.98H273.06L260.34 48.28V23.32H253.5V67H260.34Z" fill="black"/>
<path fill-rule="evenodd" clip-rule="evenodd" d="M214.065 7.12783C213.961 8.0405 213.634 8.8854 213.139 9.60653C212.902 9.32979 212.647 9.07086 212.376 8.83186C212.841 8.15997 213.413 7.58264 214.065 7.12783ZM215.021 5.48542C214.534 2.37747 211.845 0 208.6 0C205.786 0 203.39 1.78754 202.486 4.28886C201.402 3.47932 200.057 3 198.6 3C195.01 3 192.1 5.91015 192.1 9.5C192.1 10.1562 192.197 10.7898 192.378 11.387C190.399 12.8272 189.1 15.2518 189.1 18C189.1 22.4183 192.458 26 196.6 26C196.945 26 197.285 25.9751 197.618 25.9269C198.713 28.8974 201.426 31 204.6 31C207.852 31 210.62 28.7924 211.66 25.7056C212.273 25.8969 212.924 26 213.6 26C216.823 26 219.498 23.6546 220.011 20.5776C222.97 19.5066 225.1 16.5186 225.1 13C225.1 8.58172 221.742 5 217.6 5C216.694 5 215.825 5.17139 215.021 5.48542ZM220.1 19.4608C222.427 18.4139 224.1 15.9479 224.1 13C224.1 9.07223 221.13 6 217.6 6C216.719 6 215.873 6.19123 215.1 6.53927C215.091 8.00768 214.596 9.36068 213.766 10.445C214.287 11.2455 214.674 12.1523 214.894 13.1288C217.851 13.7261 220.081 16.3314 220.1 19.4608ZM215.063 14.1966C217.39 14.8371 219.1 16.9689 219.1 19.5C219.1 19.6052 219.097 19.7097 219.091 19.8134C218.611 19.9356 218.111 20 217.6 20C216.338 20 215.147 19.6071 214.138 18.9227C214.751 17.7637 215.1 16.4254 215.1 15C215.1 14.7288 215.087 14.4608 215.063 14.1966ZM213.833 13.0041C213.657 12.3637 213.399 11.7638 213.072 11.2174C212.507 11.7532 211.845 12.1886 211.116 12.4949C211.106 12.6616 211.1 12.83 211.1 13C211.1 13.1655 211.105 13.3294 211.116 13.4917C211.881 13.1748 212.72 13 213.6 13C213.678 13 213.756 13.0014 213.833 13.0041ZM211.253 14.5242C211.965 14.188 212.761 14 213.6 14C213.747 14 213.893 14.0058 214.037 14.0171C214.078 14.3376 214.1 14.6657 214.1 15C214.1 16.196 213.825 17.3126 213.342 18.2873C212.312 17.3274 211.561 16.0224 211.253 14.5242ZM210.156 13.9861C210.119 13.663 210.1 13.3339 210.1 13C210.1 12.9417 210.101 12.8836 210.102 12.8257C209.62 12.9397 209.117 13 208.6 13C207.143 13 205.798 12.5207 204.714 11.7111C204.381 12.631 203.847 13.4543 203.164 14.1277C203.322 14.4313 203.462 14.7469 203.582 15.0731C203.915 15.0249 204.255 15 204.6 15C205.885 15 207.095 15.3449 208.152 15.9526C208.669 15.1606 209.354 14.4882 210.156 13.9861ZM208.984 16.5083C209.349 15.9471 209.813 15.4564 210.351 15.0615C210.758 16.6944 211.638 18.1221 212.824 19.1681C212.5 19.6369 212.123 20.0597 211.704 20.4269C211.198 18.8371 210.236 17.4718 208.984 16.5083ZM207.671 16.832C206.751 16.2999 205.703 16 204.6 16C204.355 16 204.113 16.0148 203.874 16.0436C204.022 16.6697 204.1 17.3251 204.1 18C204.1 18.9084 203.958 19.7815 203.696 20.5953C204.791 21.48 206.147 21.9996 207.598 22C207.277 21.2304 207.1 20.3859 207.1 19.5C207.1 18.5492 207.304 17.646 207.671 16.832ZM208.654 21.9076C208.299 21.1805 208.1 20.3635 208.1 19.5C208.1 18.7603 208.246 18.0548 208.511 17.4106C209.617 18.3073 210.454 19.5773 210.849 21.0613C210.18 21.4775 209.438 21.7688 208.654 21.9076ZM208.11 22.9818C207.942 22.9939 207.771 23 207.6 23C206.007 23 204.53 22.4702 203.315 21.5667C202.376 23.5746 200.669 25.1022 198.604 25.7113C199.596 28.2538 201.939 30 204.6 30C207.391 30 209.832 28.0797 210.731 25.3344C209.656 24.8049 208.749 23.987 208.11 22.9818ZM210.982 24.3383C210.288 23.9619 209.684 23.4407 209.211 22.815C209.859 22.6638 210.475 22.4234 211.048 22.1063C211.082 22.3984 211.1 22.6967 211.1 23C211.1 23.4589 211.059 23.9062 210.982 24.3383ZM211.922 24.7394C212.039 24.1794 212.1 23.5974 212.1 23C212.1 22.4884 212.055 21.9881 211.969 21.5032C212.597 21.0221 213.153 20.4398 213.615 19.7788C214.77 20.5525 216.136 21 217.6 21C218.053 21 218.496 20.9572 218.927 20.8752C218.316 23.2473 216.163 25 213.6 25C213.015 25 212.451 24.9086 211.922 24.7394ZM202.379 14.789C202.457 14.9518 202.53 15.1185 202.596 15.2887C202.091 15.4376 201.608 15.6414 201.152 15.8937C201.137 15.7621 201.124 15.6292 201.116 15.4952C201.565 15.3066 201.988 15.0689 202.379 14.789ZM202.895 16.245C202.35 16.4049 201.832 16.6395 201.351 16.9387C201.643 18.0352 202.176 19.0149 202.881 19.8135C203.024 19.2371 203.1 18.6295 203.1 18C203.1 17.3918 203.029 16.804 202.895 16.245ZM202.524 20.8895C201.61 19.9922 200.905 18.8558 200.496 17.5731C199.042 18.8465 198.1 20.7875 198.1 23C198.1 23.6082 198.171 24.196 198.305 24.755C200.172 24.2074 201.727 22.7822 202.524 20.8895ZM197.1 23C197.1 20.3204 198.335 17.9486 200.231 16.4968C200.191 16.2733 200.16 16.0465 200.139 15.8168C199.645 15.9365 199.13 16 198.6 16C196.034 16 193.816 14.5136 192.759 12.3549C191.157 13.6185 190.1 15.657 190.1 18C190.1 21.9278 193.07 25 196.6 25C196.845 25 197.087 24.9852 197.326 24.9564C197.178 24.3303 197.1 23.6749 197.1 23ZM210.188 11.7671C209.686 11.9186 209.152 12 208.6 12C207.222 12 205.963 11.4933 204.997 10.6561C205.065 10.2809 205.1 9.89455 205.1 9.5C205.1 9.18404 205.077 8.87334 205.034 8.56943C205.825 8.20229 206.694 8 207.6 8C208.862 8 210.053 8.39288 211.062 9.07727C210.63 9.8954 210.328 10.8028 210.188 11.7671ZM211.292 11.297C211.733 11.0493 212.136 10.7428 212.49 10.3881C212.294 10.1476 212.082 9.92192 211.858 9.71266C211.613 10.207 211.422 10.7378 211.292 11.297ZM214.072 5.93875C213.093 6.49634 212.244 7.27869 211.585 8.22118C210.43 7.44747 209.064 7 207.6 7C206.614 7 205.672 7.20306 204.809 7.57213C204.509 6.60244 203.987 5.72992 203.303 5.01341C203.952 2.69805 206.078 1 208.6 1C211.448 1 213.791 3.16482 214.072 5.93875ZM203.421 8.35597C203.578 8.2436 203.739 8.13736 203.903 8.03759C203.734 7.4218 203.46 6.84925 203.102 6.34016C203.101 6.39326 203.1 6.44654 203.1 6.5C203.1 7.1513 203.213 7.77616 203.421 8.35597ZM202.1 6.5C202.1 7.39655 202.281 8.2507 202.61 9.02771C201.901 9.702 201.313 10.5177 200.885 11.4333C199.67 10.5298 198.193 10 196.6 10C195.401 10 194.268 10.3001 193.263 10.8336C193.156 10.4066 193.1 9.95991 193.1 9.5C193.1 6.46243 195.562 4 198.6 4C199.978 4 201.237 4.5067 202.202 5.34393C202.135 5.7191 202.1 6.10545 202.1 6.5ZM203.094 9.9561C202.504 10.5654 202.02 11.2945 201.676 12.1105C202.026 12.4545 202.346 12.8336 202.63 13.2426C203.217 12.6107 203.658 11.8407 203.897 10.9866C203.596 10.6716 203.327 10.3264 203.094 9.9561ZM196.6 11C198.052 11 199.409 11.5196 200.503 12.4047C200.262 13.1563 200.122 13.9584 200.102 14.7923C199.625 14.9276 199.121 15 198.6 15C196.38 15 194.468 13.6853 193.599 11.7921C194.502 11.2849 195.525 11 196.6 11ZM201.319 13.1865C201.223 13.5738 201.157 13.9752 201.124 14.3878C201.39 14.2505 201.642 14.0922 201.88 13.9152C201.708 13.6584 201.521 13.415 201.319 13.1865ZM204.087 9.11253C204.008 9.167 203.93 9.22325 203.854 9.28124C203.93 9.41093 204.011 9.53723 204.098 9.65984C204.099 9.60675 204.1 9.55346 204.1 9.5C204.1 9.36973 204.095 9.24053 204.087 9.11253Z" fill="url(#paint0_linear)"/>
<defs>
<linearGradient id="paint0_linear" x1="211.619" y1="44.6609" x2="237.352" y2="2.24203" gradientUnits="userSpaceOnUse">
<stop stop-color="#FA6400"/>
<stop offset="1" stop-color="#F7B500"/>
</linearGradient>
</defs>
</svg>
